inDegrees=yes
name=ik_S44_A05_T01
DataType=double
version=3
OpenSimVersion=4.3-2021-08-27-4bc7ad9
endheader
time	pelvis_tilt	pelvis_list	pelvis_rotation	pelvis_tx	pelvis_ty	pelvis_tz	hip_flexion_r	hip_adduction_r	hip_rotation_r	knee_angle_r	knee_angle_r_beta	ankle_angle_r	subtalar_angle_r	mtp_angle_r	hip_flexion_l	hip_adduction_l	hip_rotation_l	knee_angle_l	knee_angle_l_beta	ankle_angle_l	subtalar_angle_l	mtp_angle_l	lumbar_extension	lumbar_bending	lumbar_rotation	arm_flex_r	arm_add_r	arm_rot_r	elbow_flex_r	pro_sup_r	wrist_flex_r	wrist_dev_r	arm_flex_l	arm_add_l	arm_rot_l	elbow_flex_l	pro_sup_l	wrist_flex_l	wrist_dev_l
0	0	0	0	0	0.9399999999999999	0	0	0	0	0	0	0	0	0	0	0	0	0	0	0	0	0	0	0	0	0	0	0	0	89.99999999963507	0	0	0	0	0	0	89.99999999869995	0	0
0.02	-7.626831438544996	-0.4287218841898072	31.86310194049664	0	0.9399999999999999	0	2.817569342978957	-1.334525228915373	-0.9492569717565918	4.345271154213154	0.07583928853295381	0	0	0	2.817569342978957	-1.334525228915373	-0.9492569717565918	4.345271154213154	0.07583928853295381	0	0	0	-3.031352244580554	-4.379180048359446	8.146552516357589	15.46300237539948	-8.386709407922579	-2.245230630587215	53.22502501906316	119.8554802062602	0	0	14.74511139332909	-3.954769801975218	-1.820570725123967	57.12143949330878	128.73558794173	0	0
0.04	-8.61589578914737	-1.321958395048444	34.22321485177136	0	0.9399999999999999	0	42.8205572663763	-11.61066694941814	-11.0741398055761	54.01816807679202	0.9427948888357138	0	0	0	42.8205572663763	-11.61066694941814	-11.0741398055761	54.01816807679202	0.9427948888357138	0	0	0	-1.89548098918697	-4.021824494485682	5.733632879569815	15.45593189564641	-8.437663678557806	-2.17272784590317	53.31629565812863	119.691347197045	0	0	14.74514875999703	-3.926983109645258	-1.865092536119071	57.12855108182422	128.7117984589212	0	0
0.06	-8.612858391830631	-1.320525907915856	34.20839433606344	0	0.9399999999999999	0	42.82622904764238	-11.59585684126499	-11.06784970341351	54.01987258105191	0.9428246380471632	0	0	0	42.82622904764238	-11.59585684126499	-11.06784970341351	54.01987258105191	0.9428246380471632	0	0	0	-1.903090272607446	-4.00832669869849	5.726458169655946	15.48911020718779	-8.426272999472237	-2.181411420528442	53.35405738586901	119.6550488493285	0	0	14.71137279059304	-3.969756699811325	-1.826580056773772	57.15068109822031	128.6371350842731	0	0
0.08	-8.623025186228915	-1.308765937500932	34.19072325119994	0	0.9399999999999999	0	42.82862943516437	-11.58793107500538	-11.06480310582996	54.02056212012986	0.9428366727743945	0	0	0	42.82862943516437	-11.58793107500538	-11.06480310582996	54.02056212012986	0.9428366727743945	0	0	0	-1.909519324913499	-3.986860707746664	5.716792374974007	15.49591656260855	-8.432241610506349	-2.179532535870808	53.35319854183803	119.6698872377345	0	0	14.73584850009818	-3.977531849545426	-1.836518658927732	57.15472650584389	128.6262363108094	0	0
0.1	-8.623892076342512	-1.307539502818041	34.17479408562775	0	0.9399999999999999	0	42.83142835758624	-11.58015011992147	-11.06159405543512	54.02139501155424	0.9428512094720617	0	0	0	42.83142835758624	-11.58015011992147	-11.06159405543512	54.02139501155424	0.9428512094720617	0	0	0	-1.915049957858847	-3.978176684948832	5.707601112906469	15.5181926608049	-8.410804990830574	-2.165060673328283	53.37288868521004	119.6706525758921	0	0	14.73040889145879	-3.981157735608049	-1.822028191663261	57.14104971526865	128.6164531158395	0	0
0.12	-8.637713727604112	-1.302202545551796	34.16051315284187	0	0.9399999999999999	0	42.83453764948568	-11.5714007893751	-11.05799833435753	54.02231713367117	0.9428673035391076	0	0	0	42.83453764948568	-11.5714007893751	-11.05799833435753	54.02231713367117	0.9428673035391076	0	0	0	-1.929595742093478	-3.957963351130505	5.697949766999543	15.52796036905932	-8.406813222637043	-2.151266695445884	53.39289896617687	119.6655059499358	0	0	14.74237273263181	-3.974528319340028	-1.825550474058937	57.1459035353853	128.5876290741762	0	0
0.14	-8.641835719579236	-1.295326649248659	34.14897862410785	0	0.9399999999999999	0	42.83607062400245	-11.56621420259583	-11.05602617102666	54.02275568411959	0.9428749576883687	0	0	0	42.83607062400245	-11.56621420259583	-11.05602617102666	54.02275568411959	0.9428749576883687	0	0	0	-1.932103050380057	-3.946082057252549	5.692131398396441	15.5366754281102	-8.391261132110163	-2.156104149070058	53.38712361616939	119.6681122427836	0	0	14.73166528512898	-3.985099010033241	-1.834177138319148	57.13363821611138	128.5960166150864	0	0
0.16	-8.640650823129009	-1.292023008902424	34.13344262107307	0	0.9399999999999999	0	42.83820250405248	-11.55886424248467	-11.05323919325331	54.0233607828536	0.9428855186535767	0	0	0	42.83820250405248	-11.55886424248467	-11.05323919325331	54.0233607828536	0.9428855186535767	0	0	0	-1.933374967934438	-3.938577007309235	5.682286781034577	15.53643522547459	-8.39210600388026	-2.134446245019928	53.38091207307343	119.6604362725996	0	0	14.72781617149725	-3.991250743462972	-1.85001771940503	57.1074374628135	128.6115296883746	0	0
0.18	-8.641234721963146	-1.291125866695949	34.13380957562049	0	0.9399999999999999	0	42.84058695667066	-11.55190572508906	-11.05042147915263	54.02406338011803	0.9428977812891565	0	0	0	42.84058695667066	-11.55190572508906	-11.05042147915263	54.02406338011803	0.9428977812891565	0	0	0	-1.937948097441534	-3.931561779526989	5.676112052594781	15.52763578897281	-8.358928656744355	-2.11259773694209	53.40398724858966	119.6439347369386	0	0	14.73596564259493	-3.984428872003615	-1.850694315336402	57.1167123809235	128.5900385369058	0	0
